<?xml version="1.0" encoding="UTF-8"?>
<svg version="1.1" xmlns="http://www.w3.org/2000/svg" width="517" height="144">
<path d="M0 0 C170.61 0 341.22 0 517 0 C517 47.52 517 95.04 517 144 C346.39 144 175.78 144 0 144 C0 96.48 0 48.96 0 0 Z " fill="#FDFDFC" transform="translate(0,0)"/>
<path d="M0 0 C6.83127759 5.65945742 13.09916987 11.54416392 18 19 C18.65742188 19.93585937 19.31484375 20.87171875 19.9921875 21.8359375 C26.6349923 32.30417074 28.02127891 43.93397586 29 56 C29.63103848 54.1895935 30.25446875 52.37653479 30.875 50.5625 C31.39707031 49.04849609 31.39707031 49.04849609 31.9296875 47.50390625 C33.18347682 43.39934779 34.06898189 39.18958149 35 35 C41.27 35 47.54 35 54 35 C54.26731934 36.45986328 54.53463867 37.91972656 54.81005859 39.42382812 C55.83237665 44.52342807 57.30409398 49.32276077 59.0390625 54.21875 C59.32478119 55.04330688 59.61049988 55.86786377 59.90487671 56.71740723 C60.80545149 59.31378876 61.7146144 61.907044 62.625 64.5 C63.54128016 67.12192655 64.45566091 69.74448049 65.36654663 72.36828613 C65.93069205 73.99211848 66.49814723 75.61480555 67.06924438 77.23620605 C69 82.77681507 69 82.77681507 69 85 C69.66 85 70.32 85 71 85 C71.12600586 84.2891626 71.25201172 83.5783252 71.38183594 82.84594727 C72.01341402 79.93824361 72.88343523 77.26373344 73.890625 74.46484375 C74.27089844 73.40716797 74.65117187 72.34949219 75.04296875 71.25976562 C75.64044922 69.61524414 75.64044922 69.61524414 76.25 67.9375 C76.63285156 66.86822266 77.01570312 65.79894531 77.41015625 64.69726562 C79.70243595 58.3532474 82.16015587 52.12582402 84.87792969 45.95141602 C86.22686572 42.40326814 87.07935503 38.68257988 88 35 C93.61 35 99.22 35 105 35 C104.01 36.65 103.02 38.3 102 40 C101.690625 40.78375 101.38125 41.5675 101.0625 42.375 C99.94355403 45.13945475 98.50564743 47.61625311 97.00390625 50.1875 C95.43152676 53.02634858 94.23992097 56.00352432 93 59 C92.35846536 60.46022947 91.71237781 61.91846451 91.0625 63.375 C90.7221875 64.13941406 90.381875 64.90382813 90.03125 65.69140625 C89.36661042 67.17929258 88.70008679 68.66633943 88.03125 70.15234375 C87.00974533 72.43013439 86.00403288 74.71445605 85 77 C84.57332031 77.95132813 84.14664063 78.90265625 83.70703125 79.8828125 C80.93218638 86.24623974 79.10905615 92.14401653 78 99 C72.72 99 67.44 99 62 99 C61.566875 97.39125 61.13375 95.7825 60.6875 94.125 C58.49612817 86.12751684 56.20793651 78.3791288 53.0390625 70.7109375 C51.85254362 67.61528299 50.88939383 64.48790154 49.9375 61.3125 C48.55064805 56.70597609 47.15308843 52.30617686 45 48 C44.34 47.67 43.68 47.34 43 47 C42.84144531 47.6084375 42.68289062 48.216875 42.51953125 48.84375 C39.33469733 60.80887189 35.75993807 72.56292659 31 84 C29.07047256 88.97614973 28.44596357 93.71885244 28 99 C27.10539063 98.94457031 26.21078125 98.88914062 25.2890625 98.83203125 C17.75885675 98.7304857 17.75885675 98.7304857 11.3359375 102.19921875 C9.73815804 104.11495098 8.16623098 106.05246253 6.6171875 108.0078125 C-2.5106671 118.4435388 -18.37358232 125.66698088 -32 127 C-54.03146215 128.24371157 -72.70688014 123.40294502 -89.62890625 108.71875 C-96.14919685 102.58669044 -100.6695662 95.79679032 -105 88 C-105.42152344 87.2678125 -105.84304687 86.535625 -106.27734375 85.78125 C-111.11984405 76.86374001 -112.56372862 67.3481233 -112.5 57.3125 C-112.49500488 56.26811768 -112.49000977 55.22373535 -112.48486328 54.14770508 C-112.08005557 36.01650714 -104.5807565 20.05300712 -92 7 C-66.28928707 -16.04516657 -28.83319631 -21.08233709 0 0 Z " fill="#FEF64F" transform="translate(145,14)"/>
<path d="M0 0 C5.61 0 11.22 0 17 0 C17.66 1.98 18.32 3.96 19 6 C19.50870822 7.40794468 20.02504722 8.81316762 20.55078125 10.21484375 C20.97653442 11.35675171 20.97653442 11.35675171 21.41088867 12.52172852 C21.70842041 13.31893311 22.00595215 14.1161377 22.3125 14.9375 C24.54473132 20.94681766 26.69834172 26.96832717 28.6875 33.0625 C30.56996418 38.80962574 32.65280872 44.42705981 35 50 C37.30846515 43.96571419 39.41247291 37.88469004 41.4375 31.75 C42.05455352 29.88537232 42.67174018 28.0207887 43.2890625 26.15625 C43.73040527 24.82207031 43.73040527 24.82207031 44.18066406 23.4609375 C45.48202407 19.55220421 46.82357521 15.65704148 48.17578125 11.765625 C49.32772176 7.90034593 50.12505868 3.93723595 51 0 C57.27 0 63.54 0 70 0 C70.26731934 1.45986328 70.53463867 2.91972656 70.81005859 4.42382812 C71.83237665 9.52342807 73.30409398 14.32276077 75.0390625 19.21875 C75.32478119 20.04330688 75.61049988 20.86786377 75.90487671 21.71740723 C76.80545149 24.31378876 77.7146144 26.907044 78.625 29.5 C79.54128016 32.12192655 80.45566091 34.74448049 81.36654663 37.36828613 C81.93069205 38.99211848 82.49814723 40.61480555 83.06924438 42.23620605 C85 47.77681507 85 47.77681507 85 50 C85.66 50 86.32 50 87 50 C87.12600586 49.2891626 87.25201172 48.5783252 87.38183594 47.84594727 C88.01341402 44.93824361 88.88343523 42.26373344 89.890625 39.46484375 C90.27089844 38.40716797 90.65117187 37.34949219 91.04296875 36.25976562 C91.44128906 35.16341797 91.83960938 34.06707031 92.25 32.9375 C92.63285156 31.86822266 93.01570313 30.79894531 93.41015625 29.69726562 C95.70243595 23.3532474 98.16015587 17.12582402 100.87792969 10.95141602 C102.22686572 7.40326814 103.07935503 3.68257988 104 0 C109.61 0 115.22 0 121 0 C120.01 1.65 119.02 3.3 118 5 C117.5359375 6.175625 117.5359375 6.175625 117.0625 7.375 C115.94355403 10.13945475 114.50564743 12.61625311 113.00390625 15.1875 C111.43152676 18.02634858 110.23992097 21.00352432 109 24 C108.35846536 25.46022947 107.71237781 26.91846451 107.0625 28.375 C106.7221875 29.13941406 106.381875 29.90382813 106.03125 30.69140625 C105.36661042 32.17929258 104.70008679 33.66633943 104.03125 35.15234375 C103.00974533 37.43013439 102.00403288 39.71445605 101 42 C100.57332031 42.95132813 100.14664063 43.90265625 99.70703125 44.8828125 C96.93218638 51.24623974 95.10905615 57.14401653 94 64 C88.72 64 83.44 64 78 64 C77.566875 62.39125 77.13375 60.7825 76.6875 59.125 C74.49612817 51.12751684 72.20793651 43.3791288 69.0390625 35.7109375 C67.85254362 32.61528299 66.88939383 29.48790154 65.9375 26.3125 C64.55064805 21.70597609 63.15308843 17.30617686 61 13 C60.34 12.67 59.68 12.34 59 12 C58.76216797 12.91265625 58.76216797 12.91265625 58.51953125 13.84375 C55.33469733 25.80887189 51.75993807 37.56292659 47 49 C45.05221518 54.02323453 44.4852756 58.66196837 44 64 C38.39 64 32.78 64 27 64 C25.9171875 60.101875 25.9171875 60.101875 24.8125 56.125 C23.12043167 50.23203057 21.19469243 44.86313405 18.25390625 39.4609375 C16.21400057 35.4573843 14.75918292 31.23550181 13.1875 27.03125 C11.96290932 23.90532116 10.53113458 20.99789915 8.96484375 18.03515625 C7.37265624 14.67673644 6.26990479 11.14510809 5.125 7.61328125 C3.87424826 4.39006454 3.87424826 4.39006454 0 0 Z " fill="#0C0B08" transform="translate(129,49)"/>
<path d="M0 0 C4.08627743 2.9537511 7.07069565 5.99815188 8.4375 10.9375 C9.11361532 15.30220003 9.22793787 19.71409772 9.3125 24.125 C9.33944946 25.12841431 9.33944946 25.12841431 9.36694336 26.15209961 C9.35633677 31.88885091 8.08110245 36.32823982 4.52734375 40.890625 C-3.57425888 47.81779383 -12.78924798 48.72188427 -23.14453125 48.34765625 C-29.97415146 47.7318141 -34.80701538 46.00229031 -39.875 41.375 C-45.69036337 32.13883465 -47.18626553 23.9454397 -46 13 C-44.35513471 6.70279383 -40.32901035 2.54898822 -35 -1 C-25.15437664 -6.46979076 -9.55711528 -6.04926023 0 0 Z " fill="#0A0A0A" transform="translate(292,66)"/>
<path d="M0 0 C4.95 0 9.9 0 15 0 C15.38800781 1.38316406 15.77601563 2.76632813 16.17578125 4.19140625 C18.45114667 11.77997064 21.57089113 19.02301315 24.59179688 26.33789062 C25.02943359 27.41103516 25.46707031 28.48417969 25.91796875 29.58984375 C26.31781982 30.55784912 26.7176709 31.52585449 27.12963867 32.52319336 C28 35 28 35 28 38 C28.66 38 29.32 38 30 38 C30.16870605 37.47212891 30.33741211 36.94425781 30.51123047 36.40039062 C32.48670252 30.33541431 34.74299015 24.41576073 37.125 18.5 C37.48464844 17.59507813 37.84429687 16.69015625 38.21484375 15.7578125 C38.55902344 14.89929688 38.90320313 14.04078125 39.2578125 13.15625 C39.5686377 12.38087891 39.87946289 11.60550781 40.19970703 10.80664062 C41 9 41 9 42 8 C42.23075082 6.65252916 42.41153063 5.29622435 42.5625 3.9375 C42.706875 2.638125 42.85125 1.33875 43 0 C47.95 0 52.9 0 58 0 C57.2575 1.27875 56.515 2.5575 55.75 3.875 C53.47144852 7.96487191 51.70699632 12.09129503 50.03515625 16.45703125 C48.96217604 19.09291848 47.73626396 21.59337951 46.4375 24.125 C44.94072528 27.04575797 43.59898656 29.90793613 42.5 33 C41.07928291 36.9972718 39.1813622 40.67561219 37.23828125 44.44140625 C36.06447174 46.86678552 35.1504431 49.2756352 34.25 51.8125 C30.80799203 60.58406869 25.20502668 69.72982112 16.7265625 74.265625 C10.59792388 76.87237627 3.01158834 77.11830339 -3.41015625 75.328125 C-5.3125 74.5 -5.3125 74.5 -8 73 C-7.88490339 71.58249437 -7.75746342 70.16598831 -7.625 68.75 C-7.52058594 67.56664062 -7.52058594 67.56664062 -7.4140625 66.359375 C-6.98492887 63.914123 -6.21399362 62.15163097 -5 60 C-4.64808594 60.49371094 -4.29617188 60.98742187 -3.93359375 61.49609375 C-1.30252159 64.91030489 0.25313915 66.75557281 4.4375 68.125 C8.61463274 67.97843394 11.67019835 67.53035588 15 65 C18.94594743 60.46451859 22.28529585 56.08009028 23 50 C22.41858339 47.73767418 22.41858339 47.73767418 21.3046875 45.55859375 C20.92111084 44.73391602 20.53753418 43.90923828 20.14233398 43.05957031 C19.72411377 42.19428711 19.30589355 41.32900391 18.875 40.4375 C18.02862704 38.62952401 17.18356692 36.82093283 16.33984375 35.01171875 C15.9310498 34.14337402 15.52225586 33.2750293 15.10107422 32.38037109 C13.7866039 29.53866697 12.59675121 26.65815615 11.4375 23.75 C8.39306639 16.2938082 4.66061308 9.16727515 1 2 C0.67 1.34 0.34 0.68 0 0 Z " fill="#0C0C0C" transform="translate(421,63)"/>
<path d="M0 0 C4.29 0 8.58 0 13 0 C13 14.85 13 29.7 13 45 C23.62763756 42.9664215 23.62763756 42.9664215 29.6875 35.75 C31.51515553 31.9206265 32.19204645 28.16406829 33 24 C37.95 24 42.9 24 48 24 C37.05353728 43.26577438 37.05353728 43.26577438 30 47 C30 47.66 30 48.32 30 49 C31.55989125 50.1184593 31.55989125 50.1184593 33.5625 51.1875 C42.39412564 56.55787341 47.68427813 64.24631775 53 73 C53 73.33 53 73.66 53 74 C48.05 74 43.1 74 38 74 C37.443125 72.47375 36.88625 70.9475 36.3125 69.375 C33.27935832 61.86638354 29.60488041 57.42219618 22 54 C19.03 53.67 16.06 53.34 13 53 C13.33 59.93 13.66 66.86 14 74 C9.38 74 4.76 74 0 74 C0.33 73.01 0.66 72.02 1 71 C1.11800406 68.77722418 1.17694326 66.55116449 1.20532227 64.32543945 C1.21522186 63.652005 1.22512146 62.97857056 1.23532104 62.284729 C1.26688389 60.06094873 1.29167275 57.8371471 1.31640625 55.61328125 C1.33698029 54.07056628 1.35797688 52.5278569 1.37937927 50.9851532 C1.4345535 46.92622398 1.48398325 42.86724427 1.53222656 38.80822754 C1.58247554 34.66572582 1.63814387 30.52329734 1.69335938 26.38085938 C1.80088409 18.25396819 1.90234166 10.1270157 2 2 C1.34 2 0.68 2 0 2 C0 1.34 0 0.68 0 0 Z " fill="#0C0C0C" transform="translate(351,39)"/>
<path d="M0 0 C1.90265625 -0.01546875 1.90265625 -0.01546875 3.84375 -0.03125 C8.84146184 0.69491326 11.95027972 2.78996383 15.3125 6.5 C18.69506253 12.19694743 18.48522021 20.42147809 16.96875 26.69921875 C15.51221938 30.34846122 13.5356028 33.03357272 10.5 35.5 C6.93559582 36.68813473 3.94525218 36.74187953 0.1875 36.8125 C-1.10800781 36.84988281 -2.40351563 36.88726562 -3.73828125 36.92578125 C-9.05939952 36.32349476 -11.98422105 34.34835492 -15.3515625 30.2421875 C-16.84424763 26.67802097 -16.93889601 23.42326282 -16.875 19.625 C-16.88660156 18.94308594 -16.89820313 18.26117188 -16.91015625 17.55859375 C-16.88195331 12.62307932 -15.9923092 8.86417012 -13.5 4.5 C-9.11607229 0.61997202 -5.77802077 -0.04697578 0 0 Z " fill="#F7F7F7" transform="translate(273.5,69.5)"/>
<path d="M0 0 C1.68435389 3.36870777 0.96550847 5.14026557 0.0625 8.8125 C-0.4634375 10.3903125 -0.4634375 10.3903125 -1 12 C-3.73155155 10.95558323 -6.17757092 9.89263153 -8.6875 8.375 C-13.18812954 6.50681415 -17.18974982 6.25441122 -22 7 C-24.93423195 8.79646854 -26.47205355 9.9441071 -28 13 C-28.09861458 15.45754974 -28.13986666 17.8860953 -28.1328125 20.34375 C-28.13376923 21.06864624 -28.13472595 21.79354248 -28.13571167 22.54040527 C-28.13639243 24.07364997 -28.13454536 25.60689755 -28.13037109 27.14013672 C-28.12502134 29.49062558 -28.13031953 31.84092335 -28.13671875 34.19140625 C-28.13605795 35.67968792 -28.13477675 37.16796948 -28.1328125 38.65625 C-28.13483673 39.36148804 -28.13686096 40.06672607 -28.13894653 40.79333496 C-28.17494742 44.52129371 -28.17494742 44.52129371 -27 48 C-31.62 48 -36.24 48 -41 48 C-41 31.83 -41 15.66 -41 -1 C-35.06 -1.495 -35.06 -1.495 -29 -2 C-29 -0.02 -29 1.96 -29 4 C-28.34 4 -27.68 4 -27 4 C-26.814375 3.401875 -26.62875 2.80375 -26.4375 2.1875 C-20.93374645 -6.18777714 -7.53777022 -3.97446066 0 0 Z " fill="#0C0C0C" transform="translate(347,65)"/>
<path d="M0 0 C0 24.42 0 48.84 0 74 C0.66 74.33 1.32 74.66 2 75 C-2.62 75 -7.24 75 -12 75 C-11.505 74.01 -11.505 74.01 -11 73 C-10.87904959 70.78463271 -10.82250828 68.56565996 -10.79467773 66.34716797 C-10.78477814 65.66412598 -10.77487854 64.98108398 -10.76467896 64.27734375 C-10.73304691 62.01566047 -10.70829989 59.75395618 -10.68359375 57.4921875 C-10.66302569 55.92562305 -10.64202925 54.35906417 -10.62062073 52.79251099 C-10.56538478 48.66616318 -10.51598225 44.53976517 -10.46777344 40.41333008 C-10.41756952 36.20389326 -10.36187767 31.9945295 -10.30664062 27.78515625 C-10.19904042 19.52349924 -10.09759961 11.26178118 -10 3 C-10.66 3 -11.32 3 -12 3 C-12 2.34 -12 1.68 -12 1 C-7.915021 0.45533613 -4.1274515 0 0 0 Z " fill="#050505" transform="translate(419,38)"/>
<path d="M0 0 C0.66 0.33 1.32 0.66 2 1 C-2.95 5.95 -7.9 10.9 -13 16 C-13 11.08924079 -9.30469813 8.39044878 -6 5 C-4.05397986 3.23549584 -2.07285289 1.6178364 0 0 Z " fill="#FFF86D" transform="translate(60,15)"/>
<path d="M0 0 C0.99 0.33 1.98 0.66 3 1 C3.33 2.65 3.66 4.3 4 6 C3.01 5.67 2.02 5.34 1 5 C-0.32 7.64 -1.64 10.28 -3 13 C-4 11 -4 11 -3.22265625 8.3984375 C-2.83980469 7.40070313 -2.45695313 6.40296875 -2.0625 5.375 C-1.68222656 4.37210937 -1.30195313 3.36921875 -0.91015625 2.3359375 C-0.60980469 1.56507812 -0.30945313 0.79421875 0 0 Z " fill="#A7A7A7" transform="translate(188,61)"/>
<path d="M0 0 C0.66 0.33 1.32 0.66 2 1 C1.04270084 2.12588014 0.08412105 3.2506715 -0.875 4.375 C-1.40867187 5.00148438 -1.94234375 5.62796875 -2.4921875 6.2734375 C-3.61432007 7.55836651 -4.79371975 8.79371975 -6 10 C-5.72510809 5.96825194 -5.46508424 4.43105369 -2.4375 1.625 C-1.633125 1.08875 -0.82875 0.5525 0 0 Z " fill="#C2C2C2" transform="translate(264,71)"/>
</svg>
