 <svg  version="1.0" xmlns="http://www.w3.org/2000/svg"  width="300.000000pt" height="84.000000pt" viewBox="0 0 300.000000 84.000000"  preserveAspectRatio="xMidYMid meet">  <g transform="translate(0.000000,84.000000) scale(0.100000,-0.100000)" fill="#fcfda0" stroke="none"> <path d="M485 816 c-113 -36 -199 -109 -246 -210 -57 -121 -58 -235 -3 -356 28 -64 113 -153 174 -185 154 -79 354 -50 470 70 44 45 24 46 -26 0 -22 -19 -54 -40 -71 -47 -18 -7 -33 -15 -33 -18 0 -15 -109 -32 -175 -27 -79 5 -97 9 -116 23 -8 6 -28 16 -45 23 -41 16 -107 80 -139 136 -92 157 -63 368 68 488 28 26 55 47 60 47 4 0 27 9 49 20 23 11 53 20 67 20 14 0 35 7 45 15 19 14 18 15 -10 14 -16 0 -47 -6 -69 -13z"/> <path d="M625 817 c11 -9 31 -17 45 -17 79 -1 225 -96 245 -160 3 -11 10 -20 14 -20 13 0 30 -48 45 -125 12 -63 14 -67 21 -41 17 61 -32 179 -106 256 -58 60 -152 108 -230 116 -51 6 -53 5 -34 -9z"/> <path d="M2390 611 l-25 -6 0 -213 0 -212 35 0 35 0 0 220 c0 141 -4 220 -10 219 -5 -1 -21 -4 -35 -8z"/> <path d="M2045 395 l0 -215 35 0 35 0 -3 50 c-6 73 -1 80 45 70 42 -10 80 -49 90 -92 5 -26 9 -28 54 -28 l49 0 -51 65 c-28 36 -62 68 -75 71 -31 8 -30 10 6 41 17 14 37 38 45 53 8 16 22 35 30 44 15 15 12 16 -34 16 -28 0 -50 -3 -50 -7 8 -51 -37 -113 -82 -113 l-29 0 0 130 0 130 -32 0 -33 0 0 -215z m48 -60 c4 -8 2 -17 -3 -20 -6 -4 -10 3 -10 14 0 25 6 27 13 6z"/> <path d="M750 551 c0 -2 6 -12 14 -20 20 -25 147 -331 141 -342 -4 -5 18 -9 50 -9 34 0 54 4 50 10 -6 10 86 300 95 300 9 -1 101 -290 95 -300 -4 -6 16 -10 50 -10 35 0 54 4 50 10 -7 12 107 286 139 333 l23 33 -53 0 c-44 -1 -54 -4 -54 -18 0 -9 -20 -71 -45 -138 -25 -67 -45 -127 -45 -135 0 -8 -4 -15 -8 -15 -9 0 -95 255 -94 284 0 19 -6 21 -56 19 -51 -1 -56 -3 -59 -25 -6 -47 -91 -283 -96 -268 -47 127 -97 273 -97 283 0 8 -18 12 -50 12 -28 0 -50 -2 -50 -4z m94 -85 c28 -97 17 -94 -20 4 -16 42 -17 50 -5 50 5 0 17 -24 25 -54z m286 38 c0 -13 -3 -14 -15 -4 -8 7 -22 10 -30 6 -8 -3 -15 -1 -15 4 0 6 14 10 30 10 21 0 30 -5 30 -16z m251 -15 c-9 -22 -10 -22 -10 -3 -1 11 2 24 6 27 12 12 14 0 4 -24z m-491 -139 c0 -5 -2 -10 -4 -10 -3 0 -8 5 -11 10 -3 6 -1 10 4 10 6 0 11 -4 11 -10z m73 -115 c10 2 16 -2 14 -8 -7 -21 -51 -14 -56 8 -2 15 0 17 10 8 8 -6 22 -9 32 -8z m296 -8 c13 5 13 3 4 -7 -13 -15 -43 -7 -43 12 0 9 3 9 11 1 6 -6 19 -9 28 -6z"/> <path d="M1515 465 c-67 -24 -94 -80 -81 -171 12 -90 54 -118 168 -113 89 5 121 26 139 93 39 144 -79 243 -226 191z m144 -49 c17 -11 33 -85 26 -119 -11 -51 -42 -77 -91 -77 -23 0 -50 3 -59 6 -39 15 -58 112 -32 164 21 42 107 56 156 26z"/> <path d="M1810 471 l-35 -6 0 -143 0 -142 40 0 40 0 -3 104 c-3 96 -2 106 18 126 27 27 81 22 116 -11 23 -21 24 -21 24 -3 0 10 3 29 6 40 5 18 0 24 -31 34 -46 15 -92 7 -123 -23 l-24 -22 7 28 c4 15 6 26 4 26 -2 -1 -20 -5 -39 -8z m17 -73 c-3 -7 -5 -2 -5 12 0 14 2 19 5 13 2 -7 2 -19 0 -25z"/> <path d="M2458 443 c10 -16 42 -84 71 -151 l52 -124 -18 -30 c-29 -50 -68 -74 -100 -62 -16 5 -32 19 -38 32 -14 33 -22 27 -27 -19 -3 -36 -1 -42 22 -51 14 -5 47 -8 75 -5 70 6 105 49 179 218 32 74 69 153 81 177 l24 42 -43 0 c-29 0 -43 -4 -43 -13 0 -8 -16 -54 -36 -104 -20 -50 -37 -96 -37 -102 0 -30 -17 -4 -38 57 -63 181 -52 162 -100 162 l-43 0 19 -27z m162 -243 c-6 -11 -12 -20 -14 -20 -2 0 -6 9 -9 20 -4 15 0 20 14 20 17 0 18 -3 9 -20z"/> </g> </svg> 